<?xml version="1.0" standalone="no"?>
<!DOCTYPE svg PUBLIC "-//W3C//DTD SVG 20010904//EN"
 "http://www.w3.org/TR/2001/REC-SVG-20010904/DTD/svg10.dtd">
<svg version="1.0" xmlns="http://www.w3.org/2000/svg"
 width="512.000000pt" height="512.000000pt" viewBox="0 0 512.000000 512.000000"
 preserveAspectRatio="xMidYMid meet">
<metadata>
Created by potrace 1.11, written by Peter Selinger 2001-2013
</metadata>
<g transform="translate(0.000000,512.000000) scale(0.100000,-0.100000)"
fill="#000000" stroke="none">
<path d="M2447 4884 c-1 -1 -40 -5 -87 -8 -69 -6 -210 -25 -290 -41 -318 -63
-700 -246 -978 -470 -118 -95 -298 -277 -364 -370 -4 -5 -18 -23 -32 -40 -53
-67 -158 -237 -210 -341 -117 -233 -183 -441 -231 -729 -26 -156 -26 -488 1
-662 130 -860 716 -1572 1533 -1859 97 -34 266 -79 338 -90 21 -3 56 -9 78
-14 131 -29 542 -32 680 -6 11 2 40 7 65 11 121 18 383 93 477 136 24 10 45
19 48 19 10 0 217 105 275 140 293 173 572 442 761 732 75 115 197 363 239
483 31 90 82 279 94 345 3 19 8 53 11 75 3 22 8 51 10 65 11 63 18 151 18 222
0 92 -26 147 -89 191 -33 23 -52 29 -100 30 -67 1 -104 -15 -152 -64 -38 -39
-49 -75 -56 -184 -12 -165 -20 -219 -54 -360 -110 -452 -393 -861 -777 -1126
-95 -65 -228 -138 -330 -182 -271 -115 -491 -157 -795 -152 -193 3 -227 6
-325 26 -408 84 -732 256 -1015 539 -87 87 -244 281 -258 319 -3 9 -8 18 -11
21 -24 21 -119 213 -166 335 -46 120 -86 277 -109 425 -15 95 -16 442 -2 520
4 19 14 69 22 110 9 41 18 86 20 100 13 65 90 276 136 370 110 227 278 449
458 605 30 26 67 58 83 71 126 110 460 285 627 330 244 65 346 79 570 79 164
0 248 -7 364 -31 187 -38 191 -39 238 -21 57 22 106 73 122 128 13 43 13 52 2
114 -8 40 -57 98 -101 119 -34 16 -168 49 -250 61 -23 3 -50 7 -60 9 -64 12
-417 29 -428 20z"/>
<path d="M4150 4048 c-13 -5 -40 -28 -60 -50 -61 -71 -251 -291 -289 -334 -38
-43 -67 -77 -251 -289 -62 -71 -127 -146 -144 -165 -17 -19 -90 -102 -160
-185 -71 -82 -132 -152 -135 -155 -3 -3 -31 -34 -61 -70 -30 -36 -57 -67 -60
-70 -3 -3 -39 -43 -80 -90 -90 -104 -97 -109 -137 -110 -66 0 -73 9 -249 318
-93 163 -171 301 -173 307 -2 5 -14 26 -26 45 -12 19 -39 67 -59 105 -53 98
-81 132 -129 156 -85 44 -176 30 -244 -37 -43 -44 -63 -92 -63 -156 0 -50 -14
-23 528 -976 41 -73 86 -144 100 -157 44 -44 110 -69 187 -69 117 -1 132 9
312 228 86 105 200 243 253 307 52 63 165 200 250 304 85 103 211 256 280 340
69 83 141 170 160 194 19 23 47 57 61 74 288 347 321 391 326 428 11 77 -63
135 -137 107z"/>
</g>
</svg>
